<svg xmlns="http://www.w3.org/2000/svg" xmlns:xlink="http://www.w3.org/1999/xlink" version="1.1" width="1000" height="1000" viewBox="0 0 1000 1000" xml:space="preserve">
<desc>Created with Fabric.js 3.5.0</desc>
<defs>
</defs>
<rect x="0" y="0" width="100%" height="100%" fill="#ffffff"/>
<g transform="matrix(-1.2355 0 0 1.2355 499.9949 499.997)" id="633841">
<g style="" vector-effect="non-scaling-stroke">
		<g transform="matrix(1 0 0 1 203.7355 44.0328)">
<path style="stroke: none; stroke-width: 1; stroke-dasharray: none; stroke-linecap: butt; stroke-dashoffset: 0; stroke-linejoin: miter; stroke-miterlimit: 4; is-custom-font: none; font-file-url: none; fill: rgb(63,61,86); fill-rule: nonzero; opacity: 1;" transform=" translate(-571.6355, -267.5657)" d="m 582.01001 304.39564 h -19.23999 l -0.07001 -0.07001 c -3.41998 -3.63 -4.96002 -8.73999 -4.10999 -13.64999 c 0.27002 -1.59 0.78003 -3.13 1.52002 -4.57999 l 5.84998 -11.45001 l -2.32001 -41.00999 c -0.03998 -0.75999 0.21997 -1.48 0.73999 -2.03999 c 0.52002 -0.55 1.22998 -0.86 1.98999 -0.86 h 3.59998 c 1.47998 0 2.67999 1.16 2.73999 2.63 l 1.57001 40.53001 l 8.09998 12.66 c 0.69 1.07999 1.25 2.23001 1.65002 3.42001 c 1.59003 4.60999 1.01001 9.62 -1.59998 13.73999 h 0 l -0.42999 0.67001 h 0.01001 v 0.00995 Z" stroke-linecap="round"/>
</g>
		<g transform="matrix(1 0 0 1 203.7342 72.2278)">
<path style="stroke: none; stroke-width: 1; stroke-dasharray: none; stroke-linecap: butt; stroke-dashoffset: 0; stroke-linejoin: miter; stroke-miterlimit: 4; is-custom-font: none; font-file-url: none; fill: rgb(48,52,63); fill-rule: nonzero; opacity: 1;" transform=" translate(-571.6342, -295.7606)" d="m 580.34998 301.55564 h 0 c -0.17999 0.29001 -0.5 0.45999 -0.84003 0.45999 h -14.64001 c -0.28003 0 -0.56 -0.12 -0.73999 -0.32999 c -2.46997 -2.81 -3.56 -6.5 -3.13 -10.09 c 0.04999 -0.39001 0.34003 -0.72 0.71997 -0.82001 c 3.06 -0.81 6.75 -1.26999 10.71997 -1.26999 c 3.10999 0 6.03998 0.29001 8.64001 0.79999 c 0.35999 0.07001 0.65002 0.32999 0.75 0.67999 c 1.03998 3.51999 0.54999 7.38 -1.46997 10.57001 h -0.00995 Z" stroke-linecap="round"/>
</g>
		<g transform="matrix(1 0 0 1 0 88.5328)">
<path style="stroke: none; stroke-width: 1; stroke-dasharray: none; stroke-linecap: butt; stroke-dashoffset: 0; stroke-linejoin: miter; stroke-miterlimit: 4; is-custom-font: none; font-file-url: none; fill: rgb(63,61,86); fill-rule: nonzero; opacity: 1;" transform=" translate(-367.9, -312.0657)" d="m 734.79999 313.06565 H 1 c -0.55 0 -1 -0.45001 -1 -1 s 0.45 -1 1 -1 h 733.79999 c 0.54999 0 1 0.45001 1 1 s -0.45001 1 -1 1 Z" stroke-linecap="round"/>
</g>
		<g transform="matrix(1 0 0 1 -128.3321 -100.6851)" id="uuid-4d78f6fa-6618-4aff-a06a-080a1d9c45db-382">
<path style="stroke: none; stroke-width: 1; stroke-dasharray: none; stroke-linecap: butt; stroke-dashoffset: 0; stroke-linejoin: miter; stroke-miterlimit: 4; is-custom-font: none; font-file-url: none; fill: rgb(160,97,106); fill-rule: nonzero; opacity: 1;" transform=" translate(-239.5679, -122.8477)" d="m 215.45 127.32564 c -10.75 -3.22 -17.81 -11.38 -15.75999 -18.22 c 2.05 -6.84 12.42999 -9.78 23.17999 -6.56 c 4.31 1.23 8.27 3.47 11.53999 6.54 l 45.39 14.21 l -7.12 21.16 l -43.99001 -16.25999 c -4.42 0.77 -8.96001 0.47 -13.24001 -0.88 h 0 l 0.00002 0.00999 Z" stroke-linecap="round"/>
</g>
		<g transform="matrix(1 0 0 1 -41.705 -82.7557)">
<path style="stroke: none; stroke-width: 1; stroke-dasharray: none; stroke-linecap: butt; stroke-dashoffset: 0; stroke-linejoin: miter; stroke-miterlimit: 4; is-custom-font: none; font-file-url: none; fill: rgb(230,230,230); fill-rule: nonzero; opacity: 1;" transform=" translate(-326.195, -140.7772)" d="m 416.79999 132.88564 l 0.54999 37.37 s -46.98001 -0.62 -63.41998 0.67 c -16.44 1.3 -118.89 -36.2 -118.89 -36.2 l 17.02 -24.13 l 113.01999 27.28001 l 51.72 -5 h 0 v 0.00999 Z" stroke-linecap="round"/>
</g>
		<g transform="matrix(1 0 0 1 -152.6 -93.9672)">
<rect style="stroke: none; stroke-width: 1; stroke-dasharray: none; stroke-linecap: butt; stroke-dashoffset: 0; stroke-linejoin: miter; stroke-miterlimit: 4; is-custom-font: none; font-file-url: none; fill: rgb(48,52,63); fill-rule: nonzero; opacity: 1;" x="-3.5" y="-47.5" rx="0" ry="0" width="7" height="95"/>
</g>
		<g transform="matrix(1 0 0 1 -145.6648 11.0428)">
<path style="stroke: none; stroke-width: 1; stroke-dasharray: none; stroke-linecap: butt; stroke-dashoffset: 0; stroke-linejoin: miter; stroke-miterlimit: 4; is-custom-font: none; font-file-url: none; fill: rgb(63,61,86); fill-rule: nonzero; opacity: 1;" transform=" translate(-222.2352, -234.5756)" d="m 244.07001 312.06565 h -40.49001 l -0.14999 -0.16 c -7.2 -7.64999 -10.44 -18.38998 -8.66 -28.73001 c 0.57001 -3.34 1.64 -6.57999 3.2 -9.63 l 12.32001 -24.09 l -4.89 -86.3 c -0.09 -1.60001 0.47 -3.12 1.57001 -4.28 s 2.59 -1.8 4.19 -1.8 h 7.57001 c 3.11 0 5.64999 2.42999 5.77 5.53999 l 3.28999 85.3 l 17.06 26.64001 c 1.46001 2.28 2.63 4.70001 3.48 7.20001 c 3.34 9.70001 2.12 20.23999 -3.36 28.91 h 0 l -0.89999 1.41 h 0 l -0.00002 -0.01001 Z" stroke-linecap="round"/>
</g>
		<g transform="matrix(1 0 0 1 -145.6706 70.3728)">
<path style="stroke: none; stroke-width: 1; stroke-dasharray: none; stroke-linecap: butt; stroke-dashoffset: 0; stroke-linejoin: miter; stroke-miterlimit: 4; is-custom-font: none; font-file-url: none; fill: rgb(48,52,63); fill-rule: nonzero; opacity: 1;" transform=" translate(-222.2294, -293.9057)" d="m 240.59 306.09565 h 0 c -0.38 0.60001 -1.05 0.97 -1.77 0.97 h -30.81999 c -0.59 0 -1.17 -0.25 -1.56 -0.69 c -5.2 -5.92001 -7.49001 -13.67001 -6.59 -21.23001 c 0.10001 -0.82999 0.71001 -1.51001 1.52 -1.72 c 6.42999 -1.70001 14.2 -2.67999 22.56 -2.67999 c 6.53999 0 12.72 0.60999 18.18001 1.67999 c 0.75 0.14999 1.37 0.69 1.58 1.42001 c 2.17999 7.39999 1.14999 15.53 -3.10001 22.25 h -0.00002 Z" stroke-linecap="round"/>
</g>
		<g transform="matrix(1 0 0 1 0.9 -123.9672)">
<polygon style="stroke: none; stroke-width: 1; stroke-dasharray: none; stroke-linecap: butt; stroke-dashoffset: 0; stroke-linejoin: miter; stroke-miterlimit: 4; is-custom-font: none; font-file-url: none; fill: rgb(160,97,106); fill-rule: nonzero; opacity: 1;" points="18,-19.5 24,21.5 -24,26.5 -21,-26.5 18,-19.5 "/>
</g>
		<g transform="matrix(1 0 0 1 -26.73 -163.6272)">
<circle style="stroke: none; stroke-width: 1; stroke-dasharray: none; stroke-linecap: butt; stroke-dashoffset: 0; stroke-linejoin: miter; stroke-miterlimit: 4; is-custom-font: none; font-file-url: none; fill: rgb(160,97,106); fill-rule: nonzero; opacity: 1;" cx="0" cy="0" r="32.37"/>
</g>
		<g transform="matrix(1 0 0 1 -117.7067 10.8628)" id="uuid-01223ad5-4ac1-4a04-9d1d-d35e7b8f8b6b-383">
<path style="stroke: none; stroke-width: 1; stroke-dasharray: none; stroke-linecap: butt; stroke-dashoffset: 0; stroke-linejoin: miter; stroke-miterlimit: 4; is-custom-font: none; font-file-url: none; fill: rgb(160,97,106); fill-rule: nonzero; opacity: 1;" transform=" translate(-250.1933, -234.3956)" d="m 240.31 206.77564 c -9.16 -8.22 -20.94 -10.07001 -26.32001 -4.13 s -2.32001 17.42 6.84 25.64 c 3.61 3.34 7.99001 5.74001 12.78 7.00999 l 39.25 34.33002 l 16.19 -19.11 l -40.41 -31.81 c -1.75999 -4.61 -4.62 -8.7 -8.33 -11.93001 h 0.00002 Z" stroke-linecap="round"/>
</g>
		<g transform="matrix(1 0 0 1 -4.1 54.5328)">
<path style="stroke: none; stroke-width: 1; stroke-dasharray: none; stroke-linecap: butt; stroke-dashoffset: 0; stroke-linejoin: miter; stroke-miterlimit: 4; is-custom-font: none; font-file-url: none; fill: rgb(230,230,230); fill-rule: nonzero; opacity: 1;" transform=" translate(-363.8, -278.0656)" d="m 347.79999 116.06564 l 49 -7 l 29 22.00001 l 3 121 l 28 193 l -186 2 s 14 -125 21 -132 s 12 -39 12 -39 l 14 -138 s 30 -22 30 -22.00001 Z" stroke-linecap="round"/>
</g>
		<g transform="matrix(1 0 0 1 -83.5201 -8.6477)">
<path style="stroke: none; stroke-width: 1; stroke-dasharray: none; stroke-linecap: butt; stroke-dashoffset: 0; stroke-linejoin: miter; stroke-miterlimit: 4; is-custom-font: none; font-file-url: none; fill: rgb(230,230,230); fill-rule: nonzero; opacity: 1;" transform=" translate(-284.3799, -214.8851)" d="m 329.29999 137.56565 s -26 -2 -32 16 s -13 77 -13 77 l -16 2 l -14 -15 l -15 36 s 53 58 73 32 s 17 -148 17 -148 Z" stroke-linecap="round"/>
</g>
		<g transform="matrix(1 0 0 1 3.2737 -146.25)">
<path style="stroke: none; stroke-width: 1; stroke-dasharray: none; stroke-linecap: butt; stroke-dashoffset: 0; stroke-linejoin: miter; stroke-miterlimit: 4; is-custom-font: none; font-file-url: none; fill: rgb(47,46,65); fill-rule: nonzero; opacity: 1;" transform=" translate(-371.1737, -77.2828)" d="m 396.29999 76.61565 s 0 -32.05 3 -42.05 s -14 -21 -19 -31 s -36 4 -49 6 s -12 10 -20 23 s 8 33 20 35 s 8 11 16.23001 21 s 34.53 0 34.53 0 l 3.23999 5 s -7 28 6 52 l 34 9 c -10 -30 1 -30 7.26999 -45.5 s -36.26999 -32.45 -36.26999 -32.45 Z" stroke-linecap="round"/>
</g>
		<g transform="matrix(1 0 0 1 204.09 64.9128)">
<path style="stroke: none; stroke-width: 1; stroke-dasharray: none; stroke-linecap: butt; stroke-dashoffset: 0; stroke-linejoin: miter; stroke-miterlimit: 4; is-custom-font: none; font-file-url: none; fill: rgb(242,242,242); fill-rule: nonzero; opacity: 1;" transform=" translate(-571.99, -288.4457)" d="m 634.10999 303.38566 h -17.82001 v -29.88 h 17.82001 c 2.03003 0 3.65997 -1.64999 3.65997 -3.67999 s -1.64001 -3.64999 -3.65997 -3.66 h -124.23999 c -2.03 0 -3.66 1.64999 -3.66 3.67999 s 1.64001 3.64999 3.66 3.66 h 15.20001 v 29.88 h -15.20001 c -2.03 0 -3.66 1.64999 -3.66 3.67999 s 1.64001 3.64999 3.66 3.66 h 124.23999 c 2.03003 0 3.65997 -1.64999 3.65997 -3.67999 s -1.64001 -3.64999 -3.65997 -3.66 h 0 Z m -101.70001 0 l 8.38 -22.32001 l 68.15002 -7.56 v 29.88 h -76.53003 Z" stroke-linecap="round"/>
</g>
</g>
</g>
</svg>